<?xml version="1.0" encoding="UTF-8" standalone="no"?>
<!DOCTYPE svg PUBLIC "-//W3C//DTD SVG 1.1//EN"
 "http://www.w3.org/Graphics/SVG/1.1/DTD/svg11.dtd">
<!-- Generated by graphviz version 2.50.0 (0)
 -->
<!-- Title: G Pages: 1 -->
<svg width="361pt" height="516pt"
 viewBox="0.00 0.00 271.00 387.00" xmlns="http://www.w3.org/2000/svg" xmlns:xlink="http://www.w3.org/1999/xlink">
<g id="graph0" class="graph" transform="scale(1.33 1.33) rotate(0) translate(4 383)">
<title>G</title>
<polygon fill="white" stroke="transparent" points="-4,4 -4,-383 267,-383 267,4 -4,4"/>
<!-- 1997100323072 -->
<g id="node1" class="node">
<title>1997100323072</title>
<polygon fill="none" stroke="black" points="0,-332.5 0,-378.5 263,-378.5 263,-332.5 0,-332.5"/>
<text text-anchor="middle" x="51" y="-363.3" font-family="Times New Roman,serif" font-size="14.00">lstm_121_input</text>
<polyline fill="none" stroke="black" points="0,-355.5 102,-355.5 "/>
<text text-anchor="middle" x="51" y="-340.3" font-family="Times New Roman,serif" font-size="14.00">InputLayer</text>
<polyline fill="none" stroke="black" points="102,-332.5 102,-378.5 "/>
<text text-anchor="middle" x="129.5" y="-363.3" font-family="Times New Roman,serif" font-size="14.00">input:</text>
<polyline fill="none" stroke="black" points="102,-355.5 157,-355.5 "/>
<text text-anchor="middle" x="129.5" y="-340.3" font-family="Times New Roman,serif" font-size="14.00">output:</text>
<polyline fill="none" stroke="black" points="157,-332.5 157,-378.5 "/>
<text text-anchor="middle" x="210" y="-363.3" font-family="Times New Roman,serif" font-size="14.00">[(None, 288, 6)]</text>
<polyline fill="none" stroke="black" points="157,-355.5 263,-355.5 "/>
<text text-anchor="middle" x="210" y="-340.3" font-family="Times New Roman,serif" font-size="14.00">[(None, 288, 6)]</text>
</g>
<!-- 1997023374448 -->
<g id="node2" class="node">
<title>1997023374448</title>
<polygon fill="none" stroke="black" points="15,-249.5 15,-295.5 248,-295.5 248,-249.5 15,-249.5"/>
<text text-anchor="middle" x="49" y="-280.3" font-family="Times New Roman,serif" font-size="14.00">lstm_121</text>
<polyline fill="none" stroke="black" points="15,-272.5 83,-272.5 "/>
<text text-anchor="middle" x="49" y="-257.3" font-family="Times New Roman,serif" font-size="14.00">LSTM</text>
<polyline fill="none" stroke="black" points="83,-249.5 83,-295.5 "/>
<text text-anchor="middle" x="110.5" y="-280.3" font-family="Times New Roman,serif" font-size="14.00">input:</text>
<polyline fill="none" stroke="black" points="83,-272.5 138,-272.5 "/>
<text text-anchor="middle" x="110.5" y="-257.3" font-family="Times New Roman,serif" font-size="14.00">output:</text>
<polyline fill="none" stroke="black" points="138,-249.5 138,-295.5 "/>
<text text-anchor="middle" x="193" y="-280.3" font-family="Times New Roman,serif" font-size="14.00">(None, 288, 6)</text>
<polyline fill="none" stroke="black" points="138,-272.5 248,-272.5 "/>
<text text-anchor="middle" x="193" y="-257.3" font-family="Times New Roman,serif" font-size="14.00">(None, 288, 288)</text>
</g>
<!-- 1997100323072&#45;&gt;1997023374448 -->
<g id="edge1" class="edge">
<title>1997100323072&#45;&gt;1997023374448</title>
<path fill="none" stroke="black" d="M131.5,-332.37C131.5,-324.15 131.5,-314.66 131.5,-305.73"/>
<polygon fill="black" stroke="black" points="135,-305.61 131.5,-295.61 128,-305.61 135,-305.61"/>
</g>
<!-- 1997041079488 -->
<g id="node3" class="node">
<title>1997041079488</title>
<polygon fill="none" stroke="black" points="15,-166.5 15,-212.5 248,-212.5 248,-166.5 15,-166.5"/>
<text text-anchor="middle" x="49" y="-197.3" font-family="Times New Roman,serif" font-size="14.00">lstm_122</text>
<polyline fill="none" stroke="black" points="15,-189.5 83,-189.5 "/>
<text text-anchor="middle" x="49" y="-174.3" font-family="Times New Roman,serif" font-size="14.00">LSTM</text>
<polyline fill="none" stroke="black" points="83,-166.5 83,-212.5 "/>
<text text-anchor="middle" x="110.5" y="-197.3" font-family="Times New Roman,serif" font-size="14.00">input:</text>
<polyline fill="none" stroke="black" points="83,-189.5 138,-189.5 "/>
<text text-anchor="middle" x="110.5" y="-174.3" font-family="Times New Roman,serif" font-size="14.00">output:</text>
<polyline fill="none" stroke="black" points="138,-166.5 138,-212.5 "/>
<text text-anchor="middle" x="193" y="-197.3" font-family="Times New Roman,serif" font-size="14.00">(None, 288, 288)</text>
<polyline fill="none" stroke="black" points="138,-189.5 248,-189.5 "/>
<text text-anchor="middle" x="193" y="-174.3" font-family="Times New Roman,serif" font-size="14.00">(None, 288, 96)</text>
</g>
<!-- 1997023374448&#45;&gt;1997041079488 -->
<g id="edge2" class="edge">
<title>1997023374448&#45;&gt;1997041079488</title>
<path fill="none" stroke="black" d="M131.5,-249.37C131.5,-241.15 131.5,-231.66 131.5,-222.73"/>
<polygon fill="black" stroke="black" points="135,-222.61 131.5,-212.61 128,-222.61 135,-222.61"/>
</g>
<!-- 1997041205408 -->
<g id="node4" class="node">
<title>1997041205408</title>
<polygon fill="none" stroke="black" points="18,-83.5 18,-129.5 245,-129.5 245,-83.5 18,-83.5"/>
<text text-anchor="middle" x="52" y="-114.3" font-family="Times New Roman,serif" font-size="14.00">lstm_123</text>
<polyline fill="none" stroke="black" points="18,-106.5 86,-106.5 "/>
<text text-anchor="middle" x="52" y="-91.3" font-family="Times New Roman,serif" font-size="14.00">LSTM</text>
<polyline fill="none" stroke="black" points="86,-83.5 86,-129.5 "/>
<text text-anchor="middle" x="113.5" y="-114.3" font-family="Times New Roman,serif" font-size="14.00">input:</text>
<polyline fill="none" stroke="black" points="86,-106.5 141,-106.5 "/>
<text text-anchor="middle" x="113.5" y="-91.3" font-family="Times New Roman,serif" font-size="14.00">output:</text>
<polyline fill="none" stroke="black" points="141,-83.5 141,-129.5 "/>
<text text-anchor="middle" x="193" y="-114.3" font-family="Times New Roman,serif" font-size="14.00">(None, 288, 96)</text>
<polyline fill="none" stroke="black" points="141,-106.5 245,-106.5 "/>
<text text-anchor="middle" x="193" y="-91.3" font-family="Times New Roman,serif" font-size="14.00">(None, 96)</text>
</g>
<!-- 1997041079488&#45;&gt;1997041205408 -->
<g id="edge3" class="edge">
<title>1997041079488&#45;&gt;1997041205408</title>
<path fill="none" stroke="black" d="M131.5,-166.37C131.5,-158.15 131.5,-148.66 131.5,-139.73"/>
<polygon fill="black" stroke="black" points="135,-139.61 131.5,-129.61 128,-139.61 135,-139.61"/>
</g>
<!-- 1997041268000 -->
<g id="node5" class="node">
<title>1997041268000</title>
<polygon fill="none" stroke="black" points="32,-0.5 32,-46.5 231,-46.5 231,-0.5 32,-0.5"/>
<text text-anchor="middle" x="66" y="-31.3" font-family="Times New Roman,serif" font-size="14.00">dense_54</text>
<polyline fill="none" stroke="black" points="32,-23.5 100,-23.5 "/>
<text text-anchor="middle" x="66" y="-8.3" font-family="Times New Roman,serif" font-size="14.00">Dense</text>
<polyline fill="none" stroke="black" points="100,-0.5 100,-46.5 "/>
<text text-anchor="middle" x="127.5" y="-31.3" font-family="Times New Roman,serif" font-size="14.00">input:</text>
<polyline fill="none" stroke="black" points="100,-23.5 155,-23.5 "/>
<text text-anchor="middle" x="127.5" y="-8.3" font-family="Times New Roman,serif" font-size="14.00">output:</text>
<polyline fill="none" stroke="black" points="155,-0.5 155,-46.5 "/>
<text text-anchor="middle" x="193" y="-31.3" font-family="Times New Roman,serif" font-size="14.00">(None, 96)</text>
<polyline fill="none" stroke="black" points="155,-23.5 231,-23.5 "/>
<text text-anchor="middle" x="193" y="-8.3" font-family="Times New Roman,serif" font-size="14.00">(None, 48)</text>
</g>
<!-- 1997041205408&#45;&gt;1997041268000 -->
<g id="edge4" class="edge">
<title>1997041205408&#45;&gt;1997041268000</title>
<path fill="none" stroke="black" d="M131.5,-83.37C131.5,-75.15 131.5,-65.66 131.5,-56.73"/>
<polygon fill="black" stroke="black" points="135,-56.61 131.5,-46.61 128,-56.61 135,-56.61"/>
</g>
</g>
</svg>
