<?xml version="1.0" encoding="utf-8"?>
<!-- Generator: Adobe Illustrator 27.4.0, SVG Export Plug-In . SVG Version: 6.00 Build 0)  -->
<svg version="1.1" id="export" xmlns="http://www.w3.org/2000/svg" xmlns:xlink="http://www.w3.org/1999/xlink" x="0px" y="0px"
	 viewBox="0 0 795 135" style="enable-background:new 0 0 795 135;" xml:space="preserve">
<style type="text/css">
	.st0{fill:#FFFFFF;}
	.st1{fill:none;stroke:#000000;stroke-miterlimit:10;}
	.st2{stroke:#000000;stroke-miterlimit:10;}
	.st3{font-family:'ArialMT';}
	.st4{font-size:10px;}
	.st5{fill:#EEEEEE;}
	.st6{font-size:11px;}
	.st7{fill:none;stroke:#333333;}
	.st8{fill:#555555;}
	.st9{font-size:9px;}
	.st10{fill:#335588;}
	.st11{fill:#702921;}
</style>
<rect id="background" pointer-events="all" class="st0" width="795" height="135"/>
<g id="clusters">
</g>
<g id="edge-paths">
	<path class="st1" d="M45.7,67.1h1.7c1.7,0,5,0,11.7,0s16.8,0,26.8,0s20.1,0,26.8,0s10,0,11.7,0h1.7"/>
	<path class="st1" d=""/>
	<path class="st2" d="M120.6,64.1l6,3l-6,3l2.4-3L120.6,64.1z"/>
	<path id="edge-input" class="st2" d="M126,67.1"/>
	<path class="st1" d="M201,67.1h1.7c1.7,0,5,0,8.3,0s6.7,0,8.3,0h1.7"/>
	<path class="st1" d=""/>
	<path class="st2" d="M215.6,64.1l6,3l-6,3l2.4-3L215.6,64.1z"/>
	<path id="edge-lstm_112_input" class="st2" d="M221,67.1"/>
	<path class="st1" d="M360.9,67.1h1.7c1.7,0,5,0,8.3,0s6.7,0,8.3,0h1.7"/>
	<path class="st1" d=""/>
	<path class="st2" d="M375.5,64.1l6,3l-6,3l2.4-3L375.5,64.1z"/>
	<path id="edge-lstm_112" class="st2" d="M380.9,67.1"/>
	<path class="st1" d="M489.6,67.1h1.7c1.7,0,5,0,8.3,0s6.7,0,8.3,0h1.7"/>
	<path class="st1" d=""/>
	<path class="st2" d="M504.2,64.1l6,3l-6,3l2.4-3L504.2,64.1z"/>
	<path id="edge-lstm_113" class="st2" d="M509.6,67.1"/>
	<path class="st1" d="M600.6,67.1h1.7c1.7,0,5,0,8.3,0s6.7,0,8.3,0h1.7"/>
	<path class="st1" d=""/>
	<path class="st2" d="M615.2,64.1l6,3l-6,3l2.4-3L615.2,64.1z"/>
	<path id="edge-lstm_114" class="st2" d="M620.6,67.1"/>
	<path class="st1" d="M708.6,67.1h1.7c1.7,0,5,0,8.3,0s6.7,0,8.3,0h1.7"/>
	<path class="st1" d=""/>
	<path class="st2" d="M723.2,64.1l6,3l-6,3l2.4-3L723.2,64.1z"/>
	<path id="edge-dense_49" class="st2" d="M728.6,67.1"/>
</g>
<g id="edge-labels">
	<text transform="matrix(1 0 0 1 66.6811 87.1)" class="st3 st4">?×288×6</text>
</g>
<g id="input-name-input" transform="translate(0,49.5)">
	<g transform="translate(0,0)">
		<path class="st5" d="M11.1,6.1h29.6c2.8,0,5,2.2,5,5v13c0,2.8-2.2,5-5,5H11.1c-2.8,0-5-2.2-5-5v-13C6.1,8.3,8.3,6.1,11.1,6.1z"/>
		<text transform="matrix(1 0 0 1 12.1 22.1)" class="st3 st6">input</text>
	</g>
	<path class="st7" d="M11.1,6.1h29.6c2.8,0,5,2.2,5,5v13c0,2.8-2.2,5-5,5H11.1c-2.8,0-5-2.2-5-5v-13C6.1,8.3,8.3,6.1,11.1,6.1z"/>
</g>
<g id="node-name-lstm_112_input" transform="translate(119.9169921875,32.5)">
	<g transform="translate(0,0)">
		<path class="st8" d="M11.1,6.1h65c2.8,0,5,2.2,5,5v18l0,0h-75l0,0v-18C6.1,8.3,8.3,6.1,11.1,6.1z"/>
		<text transform="matrix(1 0 0 1 12.1 22.1)" class="st0 st3 st6">InputLayer</text>
	</g>
	<g transform="translate(0,23)">
		<path class="st0" d="M6.1,6.1h75l0,0v29c0,2.8-2.2,5-5,5h-65c-2.8,0-5-2.2-5-5V6.1L6.1,6.1z"/>
		<text transform="matrix(1 0 0 1 12.1 20.1)" class="st3 st9">ragged</text>
		<text transform="matrix(1 0 0 1 40.1239 20.1)" class="st3 st9"> = false</text>
		<text transform="matrix(1 0 0 1 12.1 34.1)" class="st3 st9">sparse</text>
		<text transform="matrix(1 0 0 1 39.1132 34.1)" class="st3 st9"> = false</text>
		<line class="st7" x1="6.1" y1="6.1" x2="81.1" y2="6.1"/>
	</g>
	<path class="st7" d="M11.1,6.1h65c2.8,0,5,2.2,5,5v47c0,2.8-2.2,5-5,5h-65c-2.8,0-5-2.2-5-5v-47C6.1,8.3,8.3,6.1,11.1,6.1z"/>
</g>
<g id="node-name-lstm_112" transform="translate(214.9169921875,0)">
	<g transform="translate(0,0)">
		<path class="st10" d="M11.1,6.1H141c2.8,0,5,2.2,5,5v18l0,0H6.1l0,0v-18C6.1,8.3,8.3,6.1,11.1,6.1z"/>
		<text transform="matrix(1 0 0 1 12.1 22.1)" class="st0 st3 st6">LSTM</text>
	</g>
	<g transform="translate(0,23)">
		<path class="st0" d="M6.1,6.1H146l0,0v76l0,0H6.1l0,0V6.1L6.1,6.1z"/>
		<text transform="matrix(1 0 0 1 12.1 20.1)" class="st3 st9">batch_input_shape</text>
		<text transform="matrix(1 0 0 1 88.1649 20.1)" class="st3 st9"> = null, 288, 6</text>
		<text transform="matrix(1 0 0 1 12.1 34.1)" class="st3 st9">implementation</text>
		<text transform="matrix(1 0 0 1 73.1313 34.1)" class="st3 st9"> = 2</text>
		<text transform="matrix(1 0 0 1 12.1 48.1)" class="st3 st9">return_sequences</text>
		<text transform="matrix(1 0 0 1 84.1483 48.1)" class="st3 st9"> = true</text>
		<text transform="matrix(1 0 0 1 12.1 62.1)" class="st3 st9">time_major</text>
		<text transform="matrix(1 0 0 1 56.6122 62.1)" class="st3 st9"> = false</text>
		<text transform="matrix(1 0 0 1 12.1 76.1)" class="st3 st9">units</text>
		<text transform="matrix(1 0 0 1 31.1107 76.1)" class="st3 st9"> = 336</text>
		<line class="st7" x1="6.1" y1="6.1" x2="146" y2="6.1"/>
	</g>
	<g transform="translate(0,99)">
		<path class="st11" d="M6.1,6.1H146l0,0v18c0,2.8-2.2,5-5,5H11.1c-2.8,0-5-2.2-5-5V6.1L6.1,6.1z"/>
		<text transform="matrix(1 0 0 1 12.1 22.1)" class="st0 st3 st6">TanH</text>
	</g>
	<line class="st7" x1="6.1" y1="105.1" x2="146" y2="105.1"/>
	<path class="st7" d="M11.1,6.1H141c2.8,0,5,2.2,5,5v112c0,2.8-2.2,5-5,5H11.1c-2.8,0-5-2.2-5-5v-112C6.1,8.3,8.3,6.1,11.1,6.1z"/>
</g>
<g id="node-name-lstm_113" transform="translate(374.78173828125,7)">
	<g transform="translate(0,0)">
		<path class="st10" d="M11.1,6.1h98.7c2.8,0,5,2.2,5,5v18l0,0H6.1l0,0v-18C6.1,8.3,8.3,6.1,11.1,6.1z"/>
		<text transform="matrix(1 0 0 1 12.1 22.1)" class="st0 st3 st6">LSTM</text>
	</g>
	<g transform="translate(0,23)">
		<path class="st0" d="M6.1,6.1h108.7l0,0v62l0,0H6.1l0,0V6.1L6.1,6.1z"/>
		<text transform="matrix(1 0 0 1 12.1 20.1)" class="st3 st9">implementation</text>
		<text transform="matrix(1 0 0 1 73.1313 20.1)" class="st3 st9"> = 2</text>
		<text transform="matrix(1 0 0 1 12.1 34.1)" class="st3 st9">return_sequences</text>
		<text transform="matrix(1 0 0 1 84.1483 34.1)" class="st3 st9"> = true</text>
		<text transform="matrix(1 0 0 1 12.1 48.1)" class="st3 st9">time_major</text>
		<text transform="matrix(1 0 0 1 56.6122 48.1)" class="st3 st9"> = false</text>
		<text transform="matrix(1 0 0 1 12.1 62.1)" class="st3 st9">units</text>
		<text transform="matrix(1 0 0 1 31.1107 62.1)" class="st3 st9"> = 96</text>
		<line class="st7" x1="6.1" y1="6.1" x2="114.8" y2="6.1"/>
	</g>
	<g transform="translate(0,85)">
		<path class="st11" d="M6.1,6.1h108.7l0,0v18c0,2.8-2.2,5-5,5H11.1c-2.8,0-5-2.2-5-5V6.1L6.1,6.1z"/>
		<text transform="matrix(1 0 0 1 12.1 22.1)" class="st0 st3 st6">TanH</text>
	</g>
	<line class="st7" x1="6.1" y1="91.1" x2="114.8" y2="91.1"/>
	<path class="st7" d="M11.1,6.1h98.7c2.8,0,5,2.2,5,5v98c0,2.8-2.2,5-5,5H11.1c-2.8,0-5-2.2-5-5v-98C6.1,8.3,8.3,6.1,11.1,6.1z"/>
</g>
<g id="node-name-lstm_114" transform="translate(503.48486328125,14)">
	<g transform="translate(0,0)">
		<path class="st10" d="M11.1,6.1h81c2.8,0,5,2.2,5,5v18l0,0h-91l0,0v-18C6.1,8.3,8.3,6.1,11.1,6.1z"/>
		<text transform="matrix(1 0 0 1 12.1 22.1)" class="st0 st3 st6">LSTM</text>
	</g>
	<g transform="translate(0,23)">
		<path class="st0" d="M6.1,6.1h91l0,0v48l0,0h-91l0,0V6.1L6.1,6.1z"/>
		<text transform="matrix(1 0 0 1 12.1 20.1)" class="st3 st9">implementation</text>
		<text transform="matrix(1 0 0 1 73.1312 20.1)" class="st3 st9"> = 2</text>
		<text transform="matrix(1 0 0 1 12.1 34.1)" class="st3 st9">time_major</text>
		<text transform="matrix(1 0 0 1 56.6122 34.1)" class="st3 st9"> = false</text>
		<text transform="matrix(1 0 0 1 12.1 48.1)" class="st3 st9">units</text>
		<text transform="matrix(1 0 0 1 31.1107 48.1)" class="st3 st9"> = 96</text>
		<line class="st7" x1="6.1" y1="6.1" x2="97.1" y2="6.1"/>
	</g>
	<g transform="translate(0,71)">
		<path class="st11" d="M6.1,6.1h91l0,0v18c0,2.8-2.2,5-5,5h-81c-2.8,0-5-2.2-5-5V6.1L6.1,6.1z"/>
		<text transform="matrix(1 0 0 1 12.1 22.1)" class="st0 st3 st6">TanH</text>
	</g>
	<line class="st7" x1="6.1" y1="77.1" x2="97.1" y2="77.1"/>
	<path class="st7" d="M11.1,6.1h81c2.8,0,5,2.2,5,5v84c0,2.8-2.2,5-5,5h-81c-2.8,0-5-2.2-5-5v-84C6.1,8.3,8.3,6.1,11.1,6.1z"/>
</g>
<g id="node-name-dense_49" transform="translate(614.462890625,25.5)">
	<g transform="translate(0,0)">
		<path class="st10" d="M11.1,6.1h78.1c2.8,0,5,2.2,5,5v18l0,0H6.1l0,0v-18C6.1,8.3,8.3,6.1,11.1,6.1z"/>
		<text transform="matrix(1 0 0 1 12.1 22.1)" class="st0 st3 st6">Dense</text>
	</g>
	<g transform="translate(0,23)">
		<path class="st0" d="M6.1,6.1h88.1l0,0v43c0,2.8-2.2,5-5,5H11.1c-2.8,0-5-2.2-5-5V6.1L6.1,6.1z"/>
		<text transform="matrix(1 0 0 1 12.1 20.1)" class="st3 st9">bias_constraint</text>
		<text transform="matrix(1 0 0 1 72.6346 20.1)" class="st3 st9"> = </text>
		<text transform="matrix(1 0 0 1 12.1 34.1)" class="st3 st9">kernel_constraint</text>
		<text transform="matrix(1 0 0 1 80.6371 34.1)" class="st3 st9"> = </text>
		<text transform="matrix(1 0 0 1 12.1 48.1)" class="st3 st9">units</text>
		<text transform="matrix(1 0 0 1 31.1107 48.1)" class="st3 st9"> = 48</text>
		<line class="st7" x1="6.1" y1="6.1" x2="94.2" y2="6.1"/>
	</g>
	<path class="st7" d="M11.1,6.1h78.1c2.8,0,5,2.2,5,5v61c0,2.8-2.2,5-5,5H11.1c-2.8,0-5-2.2-5-5v-61C6.1,8.3,8.3,6.1,11.1,6.1z"/>
</g>
<path class="st5" d="M733.6,55.6H783c2.8,0,5,2.2,5,5v13c0,2.8-2.2,5-5,5h-49.4c-2.8,0-5-2.2-5-5v-13
	C728.6,57.8,730.9,55.6,733.6,55.6z"/>
<text transform="matrix(1 0 0 1 742.4122 70.0337)" class="st3 st6">output</text>
<g>
	<path class="st7" d="M733,55.6h49.4c2.8,0,5,2.2,5,5v13c0,2.8-2.2,5-5,5H733c-2.8,0-5-2.2-5-5v-13C728,57.8,730.3,55.6,733,55.6z"
		/>
</g>
</svg>
